<svg xmlns="http://www.w3.org/2000/svg" viewBox="0 0 512 512" width="512" height="512">
  <g transform="translate(28, 52) scale(2.1)">
    <path fill="#E8420A" d="M201.277,299.442 L186.867,285.032 L172.452,299.447 L186.862,313.857 Z" transform="translate(-78,-274)"/>
    <path fill="#E8420A" d="M252.356,302.150 L186.861,367.655 L121.367,302.150 C115.957,296.751 115.957,287.984 121.367,282.574 L125.991,277.950 L186.861,338.831 L247.731,277.950 L252.356,282.574 C257.766,287.984 257.766,296.751 252.356,302.150 Z" transform="translate(-78,-274)"/>
    <path fill="#E8420A" d="M147.172,353.547 L106.943,393.776 C100.692,400.027 90.556,400.027 84.304,393.776 L81.217,390.689 L132.771,339.134 Z" transform="translate(-78,-274)"/>
    <path fill="#E8420A" d="M186.862,393.228 L168.248,374.615 C162.308,368.674 152.677,368.674 146.737,374.614 L143.081,378.269 L186.862,422.049 L230.643,378.268 L226.989,374.614 C221.049,368.673 211.417,368.673 205.476,374.614 Z" transform="translate(-78,-274)"/>
    <path fill="#E8420A" d="M292.518,390.689 L289.431,393.776 C283.179,400.027 273.043,400.027 266.791,393.776 L226.552,353.536 L240.964,339.124 Z" transform="translate(-78,-274)"/>
  </g>
</svg>